<?xml version="1.0" encoding="utf-8"?>
<!-- Generator: Adobe Illustrator 16.0.0, SVG Export Plug-In . SVG Version: 6.00 Build 0)  -->
<!DOCTYPE svg PUBLIC "-//W3C//DTD SVG 1.1//EN" "http://www.w3.org/Graphics/SVG/1.1/DTD/svg11.dtd">
<svg version="1.1"
	 id="svg3004" xmlns:dc="http://purl.org/dc/elements/1.1/" xmlns:cc="http://creativecommons.org/ns#" xmlns:rdf="http://www.w3.org/1999/02/22-rdf-syntax-ns#" xmlns:svg="http://www.w3.org/2000/svg" xmlns:sodipodi="http://sodipodi.sourceforge.net/DTD/sodipodi-0.dtd" xmlns:inkscape="http://www.inkscape.org/namespaces/inkscape" sodipodi:docname="Adventurethon_NoTag_HQ.pdf" inkscape:version="0.48.5 r10040"
	 xmlns="http://www.w3.org/2000/svg" xmlns:xlink="http://www.w3.org/1999/xlink" x="0px" y="0px" width="462.548px"
	 height="54.723px" viewBox="30.224 43.505 462.548 54.723" enable-background="new 30.224 43.505 462.548 54.723"
	 xml:space="preserve">
<sodipodi:namedview  inkscape:cy="70.866249" inkscape:cx="265.74814" inkscape:zoom="0.64911085" showgrid="false" guidetolerance="10" gridtolerance="10" objecttolerance="10" borderopacity="1" pagecolor="#ffffff" bordercolor="#666666" id="namedview3006" inkscape:current-layer="g3012" inkscape:window-maximized="0" inkscape:window-y="123" inkscape:window-x="396" inkscape:window-height="480" inkscape:window-width="640" inkscape:pageshadow="2" inkscape:pageopacity="0">
	</sodipodi:namedview>
<g>
	<g id="g3014" transform="translate(27.5801,44.4238)">
		<path id="path3016" fill="#231F20" d="M2.644,53.804V43.47L9.742-0.918h31.285l7.097,44.388v10.334H2.644z"/>
	</g>
	<g id="g3018" transform="translate(36.1582,84.8003)">
		<path id="path3020" fill="#231F20" d="M4.789-37.043L-1.683,3.431v5.744h36.975V3.431l-6.47-40.475H4.789z"/>
	</g>
	<g id="g3024">
		<g id="g3030" transform="translate(57.9404,44.4238)">
			<path id="path3032" fill="#231F20" d="M10.234,53.804V-0.918h33.105c5.7,0,9.998,4.298,9.998,9.996v34.729
				c0,5.699-4.297,9.996-9.998,9.996H10.234z"/>
		</g>
		<g id="g3034" transform="translate(84.4248,84.8003)">
			<path id="path3036" fill="#231F20" d="M16.855-37.043h-28.854V9.175h28.854c3.369,0,5.747-2.377,5.747-5.744v-34.729
				C22.602-34.667,20.224-37.043,16.855-37.043"/>
		</g>
		<g id="g3038" transform="translate(92.5254,44.4238)">
			<path id="path3040" fill="#231F20" d="M18.88,53.804L10.882,7.46v-8.378h44.882V7.46l-8,46.344H18.88z"/>
		</g>
		<g id="g3042" transform="translate(104.7393,57.0698)">
			<path id="path3044" fill="#231F20" d="M21.934,25.351h-1.65L17.312-9.311H2.919v3.761l7.329,42.458H31.97L39.299-5.55v-3.761
				H24.905L21.934,25.351z"/>
		</g>
		<g id="g3046" transform="translate(115.7383,44.4238)">
			<path id="path3048" fill="#231F20" d="M24.684,53.804V-0.918h39.402V9.884l-2.347,5.968h0.036v17.894h2.311v20.059H24.684z"/>
		</g>
		<g id="g3050" transform="translate(119.1396,47.8252)">
			<path id="path3052" fill="#231F20" d="M25.534,46.151h30.9V34.595H39.928v-6.337h14.194V16.703H39.928v-5.152h14.194l2.312-5.873
				v-5.745h-30.9V46.151z"/>
		</g>
		<path id="path3054" fill="#231F20" d="M172.265,43.505h43.167v54.723h-43.167V43.505z"/>
		<g id="g3056" transform="translate(161.6748,80.2046)">
			<path id="path3058" fill="#231F20" d="M36.168-26.703l1.915,15.647h-1.188l-6.735-21.393H14.841v46.219h13.272V8.027
				l-1.85-15.582h1.124l6.8,21.326h15.318v-46.219H36.168V-26.703z"/>
		</g>
		<g id="g3060" transform="translate(176.3965,44.4238)">
			<path id="path3062" fill="#231F20" d="M39.848,53.804v-34.6h-8.649V-0.918h40.856V9.884l-3.665,9.32h-5.58v34.6H39.848z"/>
		</g>
		<g id="g3064" transform="translate(172.8789,75.5054)">
			<path id="path3066" fill="#231F20" d="M38.969-16.129h8.649v34.6h14.458v-34.6h6.935l2.31-5.873v-5.746H38.969V-16.129z"/>
		</g>
		<g id="g3068" transform="translate(203.915,44.4238)">
			<path id="path3070" fill="#231F20" d="M46.728,53.804c-5.736,0-10.061-4.297-10.061-9.996V-0.918h43.169v54.722H46.728z"/>
		</g>
		<g id="g3072" transform="translate(215.4316,57.0698)">
			<path id="path3074" fill="#231F20" d="M49.606,25.351h-5.745V-9.311h-14.46v40.473c0,3.367,2.376,5.746,5.809,5.746h28.857
				V-9.311H49.606V25.351z"/>
		</g>
		<g id="g3076" transform="translate(224.9023,44.4238)">
			<path id="path3078" fill="#231F20" d="M51.975,53.804V-0.918h33.17c5.7,0,9.996,4.298,9.996,9.996v18.157
				c0,2.562-1.099,5.043-2.846,6.842l3.573,8.91v10.816H51.975z"/>
		</g>
		<g id="g3080" transform="translate(256.0342,65.6792)">
			<path id="path3082" fill="#231F20" d="M59.758,5.98v-18.156c0-3.369-2.377-5.745-5.745-5.745H27.304h-2.208v46.219h14.459V13.902
				h2.904l3.895,14.396h14.132v-5.745l-4.557-11.355C58.108,10.601,59.758,8.159,59.758,5.98"/>
		</g>
		<g id="g3084" transform="translate(253.9951,44.4238)">
			<path id="path3086" fill="#231F20" d="M59.248,53.804V-0.918h39.403V9.884l-2.346,5.968h0.036v17.894h2.31v20.059H59.248z"/>
		</g>
		<g id="g3088" transform="translate(257.3965,47.8252)">
			<path id="path3090" fill="#231F20" d="M60.099,46.151h30.9V34.595H74.493v-6.337h14.195V16.703H74.493v-5.152h14.195l2.311-5.873
				v-5.745h-30.9V46.151z"/>
		</g>
		<g id="g3092" transform="translate(285.6455,44.4238)">
			<path id="path3094" fill="#231F20" d="M67.16,53.804v-34.6h-8.647V-0.918h40.856V9.884l-3.666,9.32h-5.579v34.6H67.16z"/>
		</g>
		<g id="g3096" transform="translate(282.1289,75.5054)">
			<path id="path3098" fill="#231F20" d="M66.281-16.129h8.647v34.6h14.46v-34.6h6.934l2.312-5.873v-5.746H66.281V-16.129z"/>
		</g>
		<path id="path3100" fill="#231F20" d="M377.143,43.505h43.102v54.723h-43.102V43.505z"/>
		<g id="g3102" transform="translate(324.6807,71.3843)">
			<path id="path3104" fill="#231F20" d="M76.919-6.857h-5.81v-16.771H56.714v46.219h14.396V4.699h5.81v17.893h14.394v-46.219
				H76.919V-6.857z"/>
		</g>
		<g id="g3106" transform="translate(341.9746,44.4238)">
			<path id="path3108" fill="#231F20" d="M81.243,53.804c-0.6,0-1.198-0.051-1.834-0.158c-0.204-0.033-0.392-0.078-0.581-0.125
				c-0.387-0.086-0.757-0.188-1.11-0.311c-0.317-0.111-0.581-0.219-0.842-0.338c-0.225-0.102-0.483-0.234-0.737-0.375
				c-0.276-0.154-0.556-0.321-0.821-0.506c-0.179-0.125-0.305-0.227-0.431-0.332c-2.342-1.824-3.706-4.696-3.706-7.852V9.078
				c0-5.698,4.326-9.996,10.062-9.996h23.042c5.735,0,10.062,4.298,10.062,9.996v34.729c0,3.155-1.364,6.027-3.744,7.882
				c-0.087,0.075-0.215,0.177-0.35,0.272c-0.308,0.214-0.589,0.381-0.874,0.54c-0.245,0.136-0.504,0.269-0.771,0.39
				c-0.234,0.107-0.519,0.222-0.813,0.321c-0.309,0.11-0.692,0.218-1.084,0.306c-0.2,0.049-0.389,0.094-0.586,0.126
				c-0.642,0.108-1.241,0.159-1.839,0.159H81.243z"/>
		</g>
		<g id="g3110" transform="translate(360.4082,84.8003)">
			<path id="path3112" fill="#231F20" d="M85.851-37.043H62.809c-3.435,0-5.81,2.377-5.81,5.746V-2.46v5.892
				c0,1.926,0.797,3.509,2.104,4.525c0.067,0.055,0.131,0.113,0.204,0.164c0.151,0.105,0.312,0.199,0.475,0.289
				c0.144,0.08,0.29,0.156,0.442,0.225c0.143,0.065,0.288,0.124,0.44,0.178c0.206,0.071,0.421,0.131,0.641,0.179
				c0.127,0.028,0.247,0.062,0.375,0.085c0.363,0.062,0.736,0.1,1.128,0.1h23.042c0.392,0,0.766-0.038,1.128-0.1
				c0.13-0.022,0.25-0.057,0.375-0.085c0.22-0.048,0.437-0.107,0.643-0.181c0.151-0.052,0.296-0.11,0.438-0.176
				c0.152-0.068,0.3-0.145,0.444-0.225c0.162-0.09,0.323-0.184,0.475-0.289c0.071-0.051,0.135-0.109,0.204-0.164
				c1.308-1.017,2.104-2.6,2.104-4.525V-2.46v-28.837C91.661-34.667,89.286-37.043,85.851-37.043"/>
		</g>
		<path id="path3114" fill="#231F20" d="M449.606,43.505h43.166v54.723h-43.166V43.505z"/>
		<g id="g3116" transform="translate(383.5479,84.8003)">
			<path id="path3118" fill="#231F20" d="M91.636-37.043v5.746l1.915,15.646h-1.188l-6.733-21.393H70.31V9.175h13.271V3.431
				l-1.848-15.582h1.123l6.8,21.326h15.317v-46.219H91.636z"/>
		</g>
		<path id="path3120" fill="#FFFFFF" d="M92.631,82.421h-5.809V59.378h5.809V82.421z M101.28,47.758H72.427v46.218h28.854
			c3.369,0,5.745-2.378,5.745-5.745V53.501C107.025,50.134,104.649,47.758,101.28,47.758"/>
		<g id="g3122" transform="translate(112.7686,47.8262)">
			<path id="path3124" fill="#FFFFFF" d="M23.941,46.149l7.327-42.455v-3.763H16.876l-2.972,34.662h-1.651L9.282-0.068H-5.11v3.763
				l7.329,42.455H23.941z"/>
		</g>
		<g id="g3126" transform="translate(119.1396,47.8262)">
			<path id="path3128" fill="#FFFFFF" d="M25.534,46.149h30.9V34.594H39.928v-6.337h14.194V16.701H39.928V11.55h14.194l2.312-5.875
				v-5.743h-30.9V46.149z"/>
		</g>
		<g id="g3130" transform="translate(160.0908,47.8262)">
			<path id="path3132" fill="#FFFFFF" d="M35.771,46.149h15.318V-0.068H37.752v5.743l1.915,15.648h-1.188L31.743-0.068H16.425
				v46.218h13.272v-5.746l-1.85-15.58h1.124L35.771,46.149z"/>
		</g>
		<g id="g3134" transform="translate(196.9131,75.5054)">
			<path id="path3136" fill="#FFFFFF" d="M44.978-16.129l2.31-5.875v-5.744H14.935v11.619h8.649v34.599h14.46v-34.599H44.978z"/>
		</g>
		<g id="g3138" transform="translate(203.915,47.8262)">
			<path id="path3140" fill="#FFFFFF" d="M46.728,46.149h28.856V-0.068h-14.46v34.662h-5.745V-0.068h-14.46v40.472
				C40.919,43.772,43.295,46.149,46.728,46.149"/>
		</g>
		<g id="g3142" transform="translate(257.3965,47.8262)">
			<path id="path3144" fill="#FFFFFF" d="M60.099,46.149h30.9V34.594H74.493v-6.337h14.195V16.701H74.493V11.55h14.195l2.311-5.875
				v-5.743h-30.9V46.149z"/>
		</g>
		<g id="g3146" transform="translate(306.1621,75.5054)">
			<path id="path3148" fill="#FFFFFF" d="M72.29-16.129l2.311-5.875v-5.744H42.248v11.619h8.647v34.599h14.46v-34.599H72.29z"/>
		</g>
		<g id="g3150" transform="translate(324.6807,47.8262)">
			<path id="path3152" fill="#FFFFFF" d="M76.919,46.149h14.394V-0.068H76.919v16.77h-5.81v-16.77H56.714v46.218h14.396V28.257h5.81
				V46.149z"/>
		</g>
		<g id="g3154" transform="translate(394.2178,47.8262)">
			<path id="path3156" fill="#FFFFFF" d="M94.304,46.149V-0.068H80.966v5.743l1.915,15.648h-1.188L74.959-0.068H59.641v46.218
				h13.271v-5.746l-1.848-15.58h1.122l6.801,21.326H94.304z"/>
		</g>
		<g id="g3158" transform="translate(235.7529,71.8613)">
			<path id="path3160" fill="#F1471D" d="M54.688-7.931c0.322-0.007,0.645-0.014,0.967-0.02c-0.264-0.895-0.525-1.791-0.789-2.686
				c-0.173-0.76,0.004-1.711-0.218-2.389c-0.378-0.082-0.657,0.221-0.987,0.315c-0.766,0.218-2.086,0.088-2.646-0.257
				c-0.937-0.576,1.23-3.775,1.344-4.346c0.053-0.268-0.086-0.611,0.019-0.907c0.101-0.281,0.409-0.257,0.514-0.554
				c-1.151-0.835-2.304-1.672-3.456-2.508c-0.849-0.711-1.697-1.422-2.548-2.133c-0.228-0.193-0.536-0.424-0.818-0.691h-0.691V-8.25
				c0.152-0.063,0.291-0.129,0.444-0.174c0.406-0.121,0.785,0.115,0.986,0.178c0.705-0.021,1.409-0.04,2.114-0.06
				c0.914,0.097,1.646,0.254,2.646,0.355c0.861,0.006,1.724,0.013,2.586,0.02c0.192-0.087,0.108-0.277,0.435-0.257
				C54.621-8.102,54.653-8.017,54.688-7.931"/>
		</g>
		<g id="g3162" transform="translate(235.7842,77.7227)">
			<path id="path3164" fill="#F1471D" d="M54.695-21.118c0.903-0.205,1.682-0.088,2.527-0.258v-0.039
				c-0.006-0.014-0.013-0.027-0.02-0.039c-1.149-0.51-1.943-1.937-3.219-2.252c-0.295,0.459-0.806,0.815-0.986,1.343
				c-0.146,0.612-0.291,1.226-0.436,1.837c0.02,0.027,0.04,0.053,0.061,0.08c0.274-0.034,0.553-0.066,0.828-0.1
				C53.843-20.677,54.213-21.009,54.695-21.118"/>
		</g>
		<g id="g3166" transform="translate(54.1611,47.8262)">
			<path id="path3168" fill="#F1471D" d="M9.289,46.149h8v-5.746l-6.47-40.472h-24.034l-6.471,40.472v5.746h8.072h2.46
				c0.428-0.311,0.981-0.328,0.981-0.328s0.415-0.576,0.716-0.799c0.3-0.223,0.46-0.338,0.46-0.338s-0.12-0.238-0.12-0.393
				c0-0.153-0.558,0.289-1.145,0.448c-0.589,0.159-1.141,0.114-0.874,0.021c0.267-0.096,1.252-0.148,1.438-0.469
				c0.185-0.32,0.3-0.531,0.581-0.623c0.281-0.093,0.621-0.152,0.621-0.152s-0.22-1.98-0.521-3.467s-0.292-1.948-0.176-2.831
				c0.116-0.881,0.216-1.527,0.196-1.924c-0.02-0.397-0.08-1.144-0.04-1.645s-0.14-1.987-0.1-3.089
				c0.04-1.1,0.158-1.885,0.158-1.885s-0.289-0.089-0.214-0.32c0.076-0.232,0.357-0.883,0.417-1.304s0.154-0.907,0.154-0.907
				s-0.125-0.205-0.037-0.396c0.089-0.191,0.339-1.1,0.544-2.064c0.205-0.962,0.151-1.086,0.151-1.086s-1.069-0.112-1.194-0.358
				c-0.125-0.247-0.196-0.298-0.161-0.479c0.036-0.184-0.038-0.271,0.072-0.484c0.109-0.211-0.01-0.529,0.129-0.585
				c0.138-0.056,0.02-0.357,0.321-0.393c0.3-0.036,0.32-0.036,0.32-0.036s-0.058-0.266,0.228-0.339
				c0.285-0.071,0.356,0.209,0.356,0.209l0.179,0.021c0,0-0.089-1.244-0.196-1.869c-0.106-0.624-0.465-1.7-0.465-2.04
				c0-0.341-0.11-1.136,0-1.722c0.108-0.585,1.071-0.807,1.071-0.807s0.16-0.351,0.588-0.583c0.428-0.231,0.886-0.379,0.886-0.379
				v-0.868c0,0-0.708-0.232-0.78-0.59c-0.071-0.355-0.125-0.908-0.125-0.908S-4.83,9.853-4.83,9.639s0.116-0.495,0.116-0.495
				S-4.91,8.765-4.85,8.409c0.06-0.356,0.22-1.248,0.602-1.586c0.381-0.34,1.087-0.787,2.528-0.166
				c1.443,0.621,1.281,1.697,1.321,2.207c0.04,0.508,0.07,0.971-0.162,1.185c-0.231,0.214-0.319,0.865-0.379,1.021
				c-0.059,0.156-0.1,0.381-0.1,0.381s0.14,0.324,0.498,0.453c0.356,0.129,0.615,0.213,1.373,0.392s1.034,0.018,1.586,0.927
				c0.552,0.91,0.41,1.935,0.98,2.42c0.57,0.486,0.887,1.787,0.962,2.394c0.076,0.606,0.49,2.228,0.076,2.424
				c-0.415,0.196-2.625,0.036-2.625,0.036s-0.25,1.825-0.125,2.586c0.125,0.763,0.57,2.539,0.339,2.744
				c-0.231,0.205-0.25,0.145-0.25,0.145s0.628,1.428,0.796,1.887c0.167,0.46,0,1.141-0.04,1.301
				c-0.039,0.162-0.221,0.342-0.221,0.342s-0.071,1.335-0.285,2.387c-0.214,1.052-0.285,1.504-0.285,1.504s0.61-0.113,1.373,0.172
				c0.762,0.285,0.683,0.303,0.683,0.303s0.387-0.194,0.921,0.167c0.537,0.361,0.518,0.951,0.537,1.685
				c0.016,0.732,0.016,0.829,0.32,1.678c0.302,0.85-0.361,2.834-1.23,2.904c-0.869,0.072-1.221-1.371-1.11-1.959
				c0.111-0.59,0.134-1.018-0.02-1.248c-0.154-0.232-0.475-0.439-0.528-0.605C2.63,36.317,2.55,36.146,2.55,36.146
				s-0.561-0.179-1.224-0.09c-0.661,0.09-1.324-0.08-1.664-0.441c-0.341-0.36-0.42-0.951-0.473-1.448
				c-0.054-0.497-0.31-1.52-0.41-2.302c-0.101-0.781-0.179-1.245-0.179-1.245s-0.285-0.214-0.641-0.214
				c-0.357,0-0.455,0.165-0.583,0c-0.13-0.165-0.261-0.586-0.261-0.586s-0.185,1.085-0.642,2.226
				c-0.458,1.141-0.862,1.624-0.902,2.627c-0.04,1.004-0.042,1.283-0.232,1.625c-0.189,0.341,0.196,0.997,0.25,1.563
				c0.054,0.565,0.022,1.218-0.159,2.152c-0.179,0.937-0.3,2.47-0.3,2.978c0,0.506,0.156,0.82,0.174,0.926
				c0.018,0.108-0.071,1.1,0.106,1.302c0.146,0.167,0.197,0.454,0.304,0.931h7.116H9.289z"/>
		</g>
		<g id="g3170" transform="translate(245.3115,47.8262)">
			<path id="path3172" fill="#F1471D" d="M57.077,46.149h14.131v-5.746l-4.556-11.354c2.179-0.595,3.828-3.038,3.828-5.216V5.675
				c0-3.367-2.377-5.743-5.745-5.743H38.027c1.018,1.126,2.056,2.447,2.578,2.902c0.533,0.389,1.068,0.777,1.602,1.165
				c0.373,0.27,0.748,0.54,1.125,0.811c0.482,0.142,0.994,0.074,1.282,0.453v0.612c1.073,0.776,2.146,1.554,3.219,2.33
				c0.17-0.799-0.315-1.272,0.159-1.915c0.085-0.115-0.029-0.839,0.177-1.105c0.241-0.314,0.789-0.609,1.324-0.613
				c1.827-0.012,1.362,1.406,1.736,2.588c-0.007,0.014-0.013,0.025-0.018,0.039c-0.106-0.02-0.211-0.039-0.316-0.06
				c-0.16,0.655-0.406,1.241-0.692,1.778c0.488,0.238,1.943,0.841,2.231,1.225c0.796,1.054,0.693,2.432,1.916,3.119
				c0.631,0.125,1.264,0.25,1.896,0.375c1.171,0.441,4.55,2.271,4.503,3.556c-0.312,0.16-0.814,0.101-1.186,0.257
				c1.37,0.211,2.739,0.421,4.107,0.632c0.251-0.812,1.438,0.339,1.561,0.414c0.356,0.216,0.945,0.267,1.284,0.415
				c-0.889,1.025-0.151,3.841-1.619,4.266c-0.494,0.143-1.46-0.066-1.778-0.217c-1.607,0.112-3.546-0.361-5.133-0.613
				c-5.737-0.908-11.499-1.904-16.59-3.278c-1.521-0.41-4.319-0.823-5.448-1.579c-0.049-0.032-0.086-0.081-0.131-0.121v28.783
				h14.462V31.755h2.903L57.077,46.149z"/>
		</g>
		<g id="g3174" transform="translate(242.1514,72.0513)">
			<path id="path3176" fill="#F1471D" d="M56.287-8.357c-0.099,0.139-0.197,0.275-0.297,0.414c0.007,0.021,0.013,0.041,0.02,0.059
				c0.729,0.141,4.522,1.029,5.055,0.791c-1.161-0.678-2.063-1.346-2.901-2.33c-0.532-0.625-0.915-1.363-1.581-1.856h-0.038
				c-0.555,1.345-1.019,0.001-1.561-0.178c-0.425,0.851-0.762,1.531-0.909,2.606c0.007,0.006,0.013,0.014,0.021,0.02
				C54.983-8.974,55.773-9.009,56.287-8.357"/>
		</g>
		<g id="g3178" transform="translate(242.2461,74.2476)">
			<path id="path3180" fill="#F1471D" d="M56.311-13.299c-0.044-0.112-0.039-0.116-0.157-0.157
				C56.16-13.376,56.204-13.326,56.311-13.299"/>
		</g>
		<g id="g3182" transform="translate(365.1943,57.1353)">
			<path id="path3184" fill="#F1471D" d="M87.048,25.204V-3.634c0-3.367-2.377-5.744-5.811-5.744H58.195
				c-3.434,0-5.812,2.377-5.812,5.744v34.729c0,3.369,2.378,5.746,5.812,5.746h23.042c2.779,0,4.842-1.573,5.534-3.951
				c-0.312,0.332-0.665,0.641-1.099,0.899c-1.119,0.638-3.118,0.985-4.646,0.573c-3.839-1.033-7.572-5.531-4.736-10.254
				c0.613-1.021,1.42-1.955,2.688-2.31c-0.06-0.798-0.394-1.673-0.705-2.286c-1.373,0.602-1.918,1.43-2.836,2.437
				c0.009,0.024,0.017,0.05,0.023,0.075c0.436,0.176,0.771,0.604,0.528,1.154c-0.526,0.133-1.288-0.126-1.632-0.025
				c-0.193,0.127-0.385,0.252-0.577,0.378c-0.739,0.124-1.694,0.196-2.538,0.427c-0.206,0.559-0.275,1.028-0.752,1.307
				c-0.644,0.373-3.141-0.436-3.164,0.476c0.379,0.294,0.741,0.563,0.578,1.206c-0.698,0.152-1.049-0.365-1.608-0.402
				c-1.229,0.929-1.936,1.915-3.665,2.461c-5.021,1.586-9.828-3.053-8.914-7.91c0.591-3.143,3.697-5.846,7.783-5.197
				c1.384,0.219,2.638,1.271,3.592,1.155c-0.008,0.059-0.017,0.116-0.025,0.175c0.225-0.071,0.37-0.134,0.3-0.376
				c0.327-0.093,0.655-0.184,0.98-0.276c-1.062-2.192-5.07-4.664-3.516-8.137c0.347-0.775,1.059-1.258,1.533-1.908
				c-0.614-1.353,2.927-3.109,3.64-3.219C68.3,3.43,69.068,3.116,69.763,2.99c0.379-0.069,0.752,0.067,1.18,0.249
				c0.53,0.225,0.472,0.671,1.834,0.98c0.107-0.733,1.001-1.257,1.706-1.48c2.294-0.071,3.999,2.966,1.834,3.942
				c-0.01,0.05-0.018,0.1-0.025,0.149c0.636,0.553,1.272,1.105,1.909,1.658c0.419,0.469,0.837,0.938,1.255,1.406
				c0.352,0.139,1.331,0.522,1.657,0.979c-0.05,0.393-0.1,0.786-0.149,1.181c0.123,0.394,0.251,0.785,0.376,1.18
				c-2.043,0.58-0.798,1.779-0.93,3.691c-0.042,0.602-0.437,0.588-0.302,1.205c0.713,0.145,3.083,0.649,3.24,1.13
				c-0.041,0.034-0.084,0.067-0.126,0.101c-0.832,0.545-2.535-0.387-3.216-0.527c0.093,0.395,0.187,0.787,0.278,1.18
				c0.092,0.344,0.25,0.896,0.34,1.239c0.134,0.194,2.009,0.265,3.731,1.205C85.455,23.061,86.38,24.048,87.048,25.204"/>
		</g>
		<g id="g3186" transform="translate(363.2793,51)">
			<path id="path3188" fill="#F1471D" d="M86.569,39.008c-0.41-0.761-0.821-1.524-1.231-2.285
				C85.705,36.994,86.575,38.554,86.569,39.008"/>
		</g>
		<g id="g3190" transform="translate(362.2744,51.8242)">
			<path id="path3192" fill="#F1471D" d="M86.317,37.153h-0.026c-0.006-0.084-0.015-0.168-0.023-0.251
				C86.285,36.985,86.3,37.069,86.317,37.153"/>
		</g>
		<g id="g3194" transform="translate(364.0527,52.5303)">
			<path id="path3196" fill="#F1471D" d="M86.762,35.564c-0.386-0.488-0.772-0.975-1.158-1.463
				c-0.446-0.449-0.925-0.775-1.392-0.768c0.003,0.118,0.05,0.105,0.201,0.125c-0.023,0.076-0.05,0.15-0.073,0.226
				c-0.078-0.007-0.152-0.018-0.228-0.024c0.1,0.247-0.121,0.398,0.024,0.729c0.168,0.209,0.336,0.418,0.503,0.627
				c-0.034,0.058-0.067,0.117-0.1,0.177c-0.118-0.192-0.235-0.386-0.353-0.577h-0.051c-0.05,0.258-0.1,0.518-0.15,0.777
				c-0.042-0.393-0.084-0.788-0.124-1.18c-0.321,0.086-0.586,0.227-0.98,0.15c-0.007-0.025-0.018-0.05-0.026-0.074
				c0.02-0.034,0.034-0.068,0.052-0.104c0.272,0.055,0.352,0.034,0.628-0.023c-0.009-0.041-0.018-0.084-0.025-0.125
				c-0.192-0.161-0.385-0.32-0.576-0.478c-0.119,0.075-0.307,3.872,0.05,4.396c0.282,0.016,0.568,0.032,0.853,0.05
				c0.017-0.386,0.035-0.771,0.05-1.155c0.025,0.385,0.05,0.77,0.075,1.155c0.301-0.042,0.603-0.084,0.903-0.126
				c-0.016-0.176-0.032-0.352-0.05-0.527h0.025c0.059,0.185,0.118,0.368,0.178,0.552c0.501-0.156,1.304-0.434,1.581-0.829
				c-0.644-0.677-1.29-1.354-1.934-2.033c0.007-0.009,0.016-0.018,0.024-0.025c0.688,0.652,1.373,1.305,2.059,1.959
				c0.185-0.201,0.369-0.401,0.554-0.603C87.163,36.172,86.979,35.885,86.762,35.564"/>
		</g>
		<g id="g3198" transform="translate(362.7363,56.0225)">
			<path id="path3200" fill="#F1471D" d="M86.433,27.707c-0.067,0.051-0.133,0.1-0.199,0.15c0.526-0.611,1.054-1.223,1.58-1.832
				C87.89,26.338,86.706,27.424,86.433,27.707"/>
		</g>
		<g id="g3202" transform="translate(363.3389,55.9023)">
			<path id="path3204" fill="#F1471D" d="M86.584,27.978c0.033,0.009,0.067,0.017,0.1,0.025
				C86.591,28.049,86.603,27.987,86.584,27.978"/>
		</g>
		<g id="g3206" transform="translate(362.7773,55.6416)">
			<path id="path3208" fill="#F1471D" d="M86.443,28.564c0.166-0.059,0.334-0.117,0.5-0.176c0.269,0.017,0.537,0.033,0.805,0.051
				c-0.436,0.074-0.87,0.15-1.305,0.227V28.564z"/>
		</g>
		<g id="g3210" transform="translate(363.7012,56.0435)">
			<path id="path3212" fill="#F1471D" d="M86.675,27.661c-0.109,0.042-0.218,0.083-0.329,0.125v-0.024
				c0.068-0.042,0.136-0.083,0.201-0.126C86.591,27.644,86.632,27.653,86.675,27.661"/>
		</g>
		<g id="g3214" transform="translate(363.7012,56.0635)">
			<path id="path3216" fill="#F1471D" d="M86.675,27.615c0.14-0.109,0.283-0.218,0.426-0.326h0.125
				C87.042,27.397,86.856,27.506,86.675,27.615"/>
		</g>
		<g id="g3218" transform="translate(363.2588,57.9316)">
			<path id="path3220" fill="#F1471D" d="M86.563,23.411c0.062,0.133-1.14,1.609-1.356,1.909h-0.05
				C85.626,24.685,86.095,24.048,86.563,23.411"/>
		</g>
		<g id="g3222" transform="translate(362.7363,58.2935)">
			<path id="path3224" fill="#F1471D" d="M86.433,22.598c0.114,0.084-0.431,0.908-0.627,1.055
				C86.016,23.301,86.225,22.95,86.433,22.598"/>
		</g>
		<g id="g3226" transform="translate(362.0938,56.4043)">
			<path id="path3228" fill="#F1471D" d="M86.272,26.849c0.018,0.016,0.032,0.033,0.05,0.05c-0.032,0.017-0.067,0.034-0.101,0.05
				C86.24,26.915,86.255,26.882,86.272,26.849"/>
		</g>
		<g id="g3230" transform="translate(361.7715,56.7266)">
			<path id="path3232" fill="#F1471D" d="M86.192,26.123c-0.013-0.034-0.048,0.001-0.025-0.101
				C86.176,26.057,86.184,26.091,86.192,26.123"/>
		</g>
		<g id="g3234" transform="translate(362.3945,55.2993)">
			<path id="path3236" fill="#F1471D" d="M86.348,29.334c-0.075,0.066-0.085,0.002-0.102,0H86.348z"/>
		</g>
		<g id="g3238" transform="translate(363.0176,54.375)">
			<path id="path3240" fill="#F1471D" d="M86.504,31.414c0.057,0.009,0.117,0.017,0.176,0.024c-0.035,0.008-0.067,0.016-0.1,0.025
				C86.554,31.446,86.529,31.431,86.504,31.414"/>
		</g>
		<g id="g3242" transform="translate(363.1377,53.9131)">
			<path id="path3244" fill="#F1471D" d="M86.533,32.453c0.704,0.527,1.406,1.055,2.11,1.583c-0.008,0.006-0.018,0.015-0.025,0.024
				C87.924,33.523,87.229,32.988,86.533,32.453"/>
		</g>
		<g id="g3246" transform="translate(364.8262,53.4912)">
			<path id="path3248" fill="#F1471D" d="M86.956,33.402l0.251,0.075C87.06,33.523,87.026,33.502,86.956,33.402"/>
		</g>
		<g id="g3250" transform="translate(364.8057,53.5117)">
			<path id="path3252" fill="#F1471D" d="M86.95,33.356c-0.082-0.018-0.167-0.032-0.251-0.05h0.2
				C86.918,33.324,86.933,33.339,86.95,33.356"/>
		</g>
		<g id="g3254" transform="translate(364.3643,53.6729)">
			<path id="path3256" fill="#F1471D" d="M86.84,32.994c-0.165,0.042-0.156-0.012-0.201-0.075c0.066,0.017,0.133,0.034,0.201,0.05
				V32.994z"/>
		</g>
		<g id="g3258" transform="translate(364.1426,53.752)">
			<path id="path3260" fill="#F1471D" d="M86.785,32.815c-0.083-0.025-0.168-0.051-0.25-0.077c0.082,0.018,0.167,0.035,0.25,0.052
				V32.815z"/>
		</g>
		<g id="g3262" transform="translate(362.4346,55.3193)">
			<path id="path3264" fill="#F1471D" d="M86.357,29.289v-0.15c0.018-0.01,0.034-0.017,0.05-0.025
				c1.106,0.117,2.212,0.234,3.315,0.352c-0.073-0.26-0.151-0.52-0.225-0.777c-0.445,0.024-0.888,0.049-1.333,0.074
				c0.419-0.084,0.838-0.168,1.257-0.251c-0.774-1.678-1.763-2.804-3.314-3.517c-0.085,0.57-0.169,1.139-0.251,1.708
				c0.023,0.026,0.05,0.051,0.075,0.076c0.033-0.034,0.066-0.067,0.1-0.102c0.021,0.139-0.229,0.619-0.301,0.629
				c-0.042,0.017-0.083,0.032-0.127,0.05c0.221-0.557,0.39-1.699,0.378-2.387c-0.269-0.1-0.535-0.199-0.803-0.301
				c-0.27,1.058-0.156,3.586,0.201,3.918c0.031-0.009,0.066-0.017,0.101-0.025c0.099-0.359,0.2-0.72,0.3-1.08
				c-0.017,0.494-0.032,0.988-0.05,1.481c0.007,0.009,0.018,0.018,0.026,0.026c0.31-0.033,0.618-0.067,0.929-0.102v0.025v0.025
				c-0.352,0.021-0.703,0.216-0.829,0.477c0.017,0.017,0.032,0.034,0.05,0.051c0.092-0.025,0.184-0.051,0.275-0.075
				c-0.19,0.253-0.138,0.419,0.126,0.652c-0.106,0.149-0.144,0.103-0.102,0.302c0.241,0.056,0.584,0.043,0.855,0.352
				c0.135,0.154,0.022,0.427,0.051,0.477c0.037,0.047,0.073,0.094,0.109,0.141c0.433,0.435,0.832,0.984,1.158,1.463
				c0.182,0.228,0.359,0.455,0.54,0.682h0.074c0.411-0.469,0.705-1.276,0.813-2.148v-1.182c-0.021-0.172-0.019-0.346-0.06-0.512
				C88.746,29.412,87.371,29.171,86.357,29.289"/>
		</g>
		<g id="g3266" transform="translate(359.6426,64.8223)">
			<path id="path3268" fill="#F1471D" d="M85.66,7.907c-0.569,0.267-0.703,0.592-1.129,0.955v0.101
				c0.332,0.31,0.668,0.62,1.002,0.93C85.818,9.53,86.122,8.372,85.66,7.907"/>
		</g>
		<g id="g3270" transform="translate(359.6426,64.9023)">
			<path id="path3272" fill="#F1471D" d="M85.66,7.728l0.05-0.074c-0.101-0.312-0.12-1.31-0.351-1.432
				c-0.035,0.51-0.068,1.021-0.101,1.531C85.391,7.745,85.526,7.736,85.66,7.728"/>
		</g>
		<g id="g3274" transform="translate(358.4766,68.5586)">
			<path id="path3276" fill="#F1471D" d="M85.368-0.499c0.09-0.242,0.086-0.266-0.1-0.453c-0.719-0.443-1.439-0.887-2.16-1.329
				c-0.844-0.597-1.494-1.611-2.61-1.909c-0.419,0.2-0.837,0.401-1.255,0.603c0.262,1.254-0.296,2.468,0.302,3.49
				c1.289,0.425,0.404,0.849,0.877,1.683c0.44,0.775,2.334,2.474,3.54,2.361c0.01-0.009,0.019-0.018,0.026-0.025
				c-0.079-0.22-0.137-0.176-0.026-0.377c0.312-0.569,1.303-0.127,1.785-0.652c0.509-0.559-0.119-1.109,0-1.533
				c0.032-0.058,0.064-0.116,0.1-0.175h0.15c0.018,0.017,0.032,0.034,0.05,0.05c0.01,0.218,0.018,0.436,0.025,0.652
				c0.016,0.009,0.035,0.018,0.051,0.025c0.066-0.268,0.133-0.535,0.201-0.803C85.84,0.684,85.97-0.179,85.368-0.499"/>
		</g>
		<g id="g3278" transform="translate(353.8574,61.3066)">
			<path id="path3280" fill="#F1471D" d="M84.213,15.817c0.25,0.06,0.502,0.118,0.754,0.177c0.361-0.094,2.974-2.495,2.986-2.712
				H87.88c-1.198,0.217-2.394,0.435-3.592,0.652C84.083,14.383,83.967,15.243,84.213,15.817"/>
		</g>
		<g id="g3282" transform="translate(354.6201,58.7354)">
			<path id="path3284" fill="#F1471D" d="M84.404,21.603l-0.326-0.15c-0.011,0.059-0.017,0.117-0.025,0.176
				c0.134,0.051,0.268,0.101,0.402,0.15C84.437,21.721,84.422,21.662,84.404,21.603"/>
		</g>
		<g id="g3286" transform="translate(357.875,62.8735)">
			<path id="path3288" fill="#F1471D" d="M85.218,12.293c-1.224,1.021-2.445,2.042-3.666,3.063v0.1
				c0.469,0.045,0.617,0.602,0.903,0.604c0.854-1.276,1.82-2.169,3.188-2.938c-0.1-0.276-0.199-0.553-0.301-0.829H85.218z"/>
		</g>
		<g id="g3290" transform="translate(355.9463,64.3594)">
			<path id="path3292" fill="#F1471D" d="M84.735,8.949c0.041-0.084,0.083-0.167,0.127-0.251c-0.738-0.419-1.475-0.838-2.211-1.256
				c-0.083,0.837-0.168,1.674-0.251,2.511c0.009,0.009,0.017,0.017,0.024,0.024c0.954-0.268,1.909-0.535,2.862-0.803
				C85.243,8.938,84.979,8.98,84.735,8.949"/>
		</g>
		<g id="g3294" transform="translate(353.8574,59.1763)">
			<path id="path3296" fill="#F1471D" d="M84.213,20.612h0.125v-0.177c-0.057-0.024-0.116-0.05-0.175-0.075
				C84.083,20.504,84.105,20.477,84.213,20.612"/>
		</g>
		<g id="g3298" transform="translate(353.5361,58.9766)">
			<path id="path3300" fill="#F1471D" d="M84.133,21.061l0.427-0.075c-0.15-0.05-0.302-0.1-0.453-0.15
				C84.114,20.911,84.124,20.985,84.133,21.061"/>
		</g>
		<g id="g3302" transform="translate(358.8789,64.7017)">
			<path id="path3304" fill="#F1471D" d="M85.469,8.179h0.151c0.017,0.017,0.033,0.034,0.05,0.05c-0.1,0.025-0.201,0.05-0.301,0.075
				c-0.018-0.017-0.034-0.032-0.051-0.05L85.469,8.179"/>
		</g>
		<g id="g3306" transform="translate(359.2012,65.9473)">
			<path id="path3308" fill="#F1471D" d="M85.55,5.376c-0.243,0.518-0.254,0.955-0.654,1.307c0.076,0.033,0.151,0.067,0.227,0.1
				C85.021,6.841,84.921,6.9,84.82,6.959c0.034,0.114,0.156,0.416,0,0.652c-0.018-0.017-0.033-0.032-0.05-0.05
				c-0.033-0.143-0.067-0.283-0.1-0.426h-0.027c-0.168,0.293-0.274,0.479-0.149,0.828c0.025,0.008,0.049,0.017,0.075,0.025
				c0.338-0.377,0.582-0.688,0.929-1.105c-0.066-0.05-0.134-0.102-0.2-0.15c0.008-0.025,0.017-0.051,0.024-0.076
				c0.076,0.01,0.149,0.017,0.228,0.025C85.622,6.421,85.779,5.565,85.55,5.376"/>
		</g>
		<g id="g3310" transform="translate(359,60.7437)">
			<path id="path3312" fill="#F1471D" d="M85.499,17.084c0.263-0.335,0.465-1.174,0.025-1.482c-0.102,0.042-0.201,0.084-0.302,0.126
				C85.314,16.179,85.406,16.632,85.499,17.084"/>
		</g>
		<g id="g3314" transform="translate(359.2813,61.1455)">
			<path id="path3316" fill="#F1471D" d="M85.569,16.181c-0.352,0.397-0.276,0.897-0.126,1.406h0.126
				C85.833,17.287,85.958,16.525,85.569,16.181"/>
		</g>
		<g id="g3318" transform="translate(358.7793,62.7124)">
			<path id="path3320" fill="#F1471D" d="M85.444,12.655c0.269,0.026,0.244-0.111,0.1-0.251c0.276,0.059,0.551,0.117,0.827,0.176
				c-0.009-0.092-0.016-0.185-0.023-0.275c-0.059-0.018-0.117-0.034-0.177-0.052c-0.09,0.09-0.147,0.13-0.277,0.052
				c0.119-0.043,0.236-0.084,0.354-0.127v-0.125c-0.346-0.31-0.687-0.619-1.031-0.93c-0.074,0.059-0.151,0.117-0.226,0.176
				C85.143,11.751,85.293,12.203,85.444,12.655"/>
		</g>
		<g id="g3322" transform="translate(359.1094,57.3213)">
			<path id="path3324" fill="#F1471D" d="M85.526,24.785c-0.121-0.401-0.22-0.816-0.272-1.184c-0.081-0.273-0.165-0.477-0.241-0.533
				c-0.302,0.26-0.604,0.52-0.905,0.777v0.052c0.479,0.535,0.956,1.071,1.433,1.606c-0.008,0.009-0.017,0.018-0.026,0.025
				c-0.483-0.52-0.97-1.038-1.456-1.557h-0.05c-0.159,0.217-0.319,0.435-0.478,0.652c0.124,0.373,1.81,1.787,2.185,2.033
				c0.018-0.016,0.035-0.032,0.051-0.049C85.771,26.355,85.67,25.561,85.526,24.785"/>
		</g>
		<g id="g3326" transform="translate(359.7031,56.2036)">
			<path id="path3328" fill="#F1471D" d="M85.675,27.299c-0.079-0.504-0.76-3.092-1.055-3.215c-0.013,0.172,0.006,0.393,0.04,0.634
				c0.097,0.324,0.19,0.747,0.272,1.185c0.165,0.546,0.366,1.053,0.541,1.32c-0.075-0.024-0.15-0.05-0.227-0.074
				c-0.02,0.444,0.027,0.699,0.2,0.928c0.01,0.01,0.018,0.018,0.026,0.027c0.059-0.018,0.117-0.034,0.175-0.052
				c0.085-0.444,0.018-0.518-0.175-0.803C85.541,27.266,85.607,27.282,85.675,27.299"/>
		</g>
		<g id="g3330" transform="translate(358.96,55.8623)">
			<path id="path3332" fill="#F1471D" d="M85.489,28.068v0.049c-0.737-0.326-1.474-0.652-2.21-0.979
				c-0.067,0.285-0.134,0.568-0.201,0.854c0.879,0.152,1.757,0.302,2.636,0.453c-0.016,0.008-0.032,0.016-0.05,0.025
				c-0.854-0.102-1.707-0.201-2.562-0.302c0.009,0.276,0.017,0.553,0.025,0.829c0.755,0.133,3.943,0.553,2.562-0.303
				c0.05-0.125,0.101-0.25,0.15-0.377c-0.101-0.059-0.201-0.117-0.301-0.174c0.05-0.027,0.1-0.052,0.15-0.076
				c-0.687-0.604-1.373-1.205-2.06-1.809c-0.092,0.26-0.184,0.52-0.275,0.779C84.065,27.381,84.776,27.725,85.489,28.068"/>
		</g>
		<g id="g3334" transform="translate(359.3613,51.3828)">
			<path id="path3336" fill="#F1471D" d="M85.589,38.146c0.311-0.694,0.62-1.389,0.93-2.083c-0.276,0.746-0.552,1.489-0.828,2.234
				c0.268,0.141,0.535,0.285,0.804,0.426c0.007-0.008,0.016-0.016,0.024-0.024c0.185-1.13,0.368-2.259,0.554-3.39h-0.077
				c-0.133,0.243-0.269,0.484-0.4,0.729c-0.069-0.058-0.168-0.021-0.276,0.054c-0.184,0.218-0.396,0.427-0.609,0.624
				c-0.309,0.365-0.623,0.748-0.847,0.803V37.47c0.215-0.201,0.531-0.461,0.847-0.754c0.219-0.262,0.432-0.503,0.609-0.624
				c0.268-0.315,0.474-0.642,0.527-0.958c-0.222,0.006-0.255-0.021-0.452-0.199v-0.051c0.033-0.019,0.065-0.035,0.101-0.051
				c0.024-0.018,0.05-0.034,0.074-0.051l0.554,0.352c0.015-0.008,0.033-0.018,0.05-0.025v-0.201
				c-0.202-0.064-0.11-0.621-0.402-0.852c-0.164,0.365-0.174,0.596-0.527,0.727c-0.043-0.076-0.083-0.15-0.125-0.227
				c-0.391,0.074-2.011,1.877-2.084,2.285C84.443,37.2,85.002,38.112,85.589,38.146"/>
		</g>
		<g id="g3338" transform="translate(360.8682,50.6592)">
			<path id="path3340" fill="#F1471D" d="M85.966,39.775c-0.041-1.174-0.083-2.344-0.126-3.518h-0.075
				c-0.24,0.265-0.674,2.812-0.604,3.291c0.26,0.076,0.519,0.149,0.778,0.227H85.966z"/>
		</g>
		<g id="g3342" transform="translate(360.707,55.4805)">
			<path id="path3344" fill="#F1471D" d="M85.926,28.927h0.151v-0.126c-0.123-0.303-0.126-0.591-0.527-0.628
				C85.548,28.452,85.673,28.81,85.926,28.927"/>
		</g>
		<g id="g3346" transform="translate(360.0439,54.2959)">
			<path id="path3348" fill="#F1471D" d="M85.76,31.592c0.067-0.133,0.135-0.268,0.201-0.4c-0.016-0.018-0.033-0.034-0.05-0.049
				c-0.059-0.01-0.117-0.02-0.176-0.027c-0.066,0.084-0.134,0.168-0.2,0.25c0.05,0.086,0.1,0.168,0.149,0.253
				C85.71,31.611,85.735,31.602,85.76,31.592"/>
		</g>
		<g id="g3350" transform="translate(358.1162,52.5879)">
			<path id="path3352" fill="#F1471D" d="M85.278,35.435c0.064-0.012,1.751-2.205,1.756-2.361c-0.023-0.007-0.049-0.014-0.073-0.023
				c-0.771,0.502-1.542,1.006-2.311,1.508C84.7,34.763,85.024,35.482,85.278,35.435"/>
		</g>
		<g id="g3354" transform="translate(357.5332,53.3711)">
			<path id="path3356" fill="#F1471D" d="M85.132,33.673c0.043-0.008,0.083-0.018,0.127-0.026c0.794-0.534,1.59-1.069,2.385-1.606
				c-0.617-0.39-2.095-0.389-2.963-0.426C84.305,32.001,85.011,33.303,85.132,33.673"/>
		</g>
		<g id="g3358" transform="translate(359.7227,59.0962)">
			<path id="path3360" fill="#F1471D" d="M85.68,20.792c-0.26,0.24,0.588,3.488,0.855,3.641c0.091-0.024,0.182-0.049,0.274-0.074
				C86.75,23.901,85.888,20.887,85.68,20.792"/>
		</g>
		<g id="g3362" transform="translate(360.4863,59.1763)">
			<path id="path3364" fill="#F1471D" d="M85.87,20.612c-0.069,0.215,0.088,0.757,0.227,0.953c0.034-0.084,0.066-0.168,0.102-0.251
				c0.426,0.806,0.143,2.257,0.728,3.014c0.009-1.188,0.016-2.378,0.023-3.566c-0.259-0.041-0.519-0.084-0.778-0.125
				c-0.016,0.175-0.031,0.351-0.051,0.526h-0.023c-0.009-0.008-0.016-0.017-0.026-0.025C86.095,20.825,86.065,20.709,85.87,20.612"
				/>
		</g>
		<g id="g3366" transform="translate(361.5908,54.2148)">
			<path id="path3368" fill="#F1471D" d="M86.147,31.774c-0.207-0.085-0.464-0.205-0.601,0.026c0.26,0.192,0.519,0.384,0.778,0.576
				c-0.068-0.166-0.135-0.333-0.202-0.503h0.103c0.05,0.084,0.1,0.17,0.148,0.252c0.033-0.059,0.067-0.116,0.1-0.176
				c-0.002-0.209-0.027-0.264-0.148-0.352C86.265,31.657,86.205,31.716,86.147,31.774"/>
		</g>
		<g id="g3370" transform="translate(353.2539,59.0366)">
			<path id="path3372" fill="#F1471D" d="M84.062,20.925c-0.017,0.043-0.034,0.084-0.05,0.127c0.059,0.016,0.117,0.032,0.176,0.05
				v-0.151C84.146,20.943,84.105,20.934,84.062,20.925"/>
		</g>
		<g id="g3374" transform="translate(352.3301,63.1143)">
			<path id="path3376" fill="#F1471D" d="M83.832,11.751c-0.075-0.213,0.13-0.993-0.276-1.13c-0.04,0.439-0.103,0.747-0.252,1.08
				c0.025,0.024,0.051,0.05,0.076,0.074C83.53,11.768,83.682,11.76,83.832,11.751"/>
		</g>
		<g id="g3378" transform="translate(351.9688,66.6904)">
			<path id="path3380" fill="#F1471D" d="M83.741,3.705c0.008,0.167,0.018,0.334,0.026,0.502c-0.445,0.373-1.244,0.119-1.81,0.05
				c0.008,0.05,0.017,0.102,0.024,0.151c0.371,0.312,0.755,0.926,0.829,1.305c0.394,0.01,0.717,0.846,1.056,1.08
				c0.008-0.008,0.016-0.016,0.024-0.025c-0.093-0.423-0.224-1.174-0.101-1.682c0.116-0.395,0.235-0.787,0.352-1.18
				C84.009,3.838,83.875,3.772,83.741,3.705"/>
		</g>
		<g id="g3382" transform="translate(351.8682,69.3013)">
			<path id="path3384" fill="#F1471D" d="M83.716-2.169h0.075c0.008-0.018,0.018-0.034,0.025-0.052
				c-0.142-0.159-0.284-0.317-0.427-0.477c-0.033,0.066-0.067,0.134-0.1,0.2C83.43-2.388,83.573-2.279,83.716-2.169"/>
		</g>
		<g id="g3386" transform="translate(349.6377,63.3154)">
			<path id="path3388" fill="#F1471D" d="M83.158,11.299c-0.399-0.185-0.804-0.368-1.205-0.553c0.042-0.059,0.085-0.117,0.127-0.176
				c-0.085-0.033-0.169-0.066-0.252-0.101c-0.176,0.067-0.353,0.134-0.526,0.201c0.609,0.226,1.221,0.452,1.832,0.677
				C83.143,11.332,83.151,11.316,83.158,11.299"/>
		</g>
		<g id="g3390" transform="translate(347.3076,62.0293)">
			<path id="path3392" fill="#F1471D" d="M82.576,14.192c-0.105,0.105-0.388,0.387-0.708,0.717c0.325-0.342,0.589-0.668,0.683-0.894
				c-0.042-0.007-0.084-0.017-0.126-0.024c-0.545,0.427-2.543,1.914-2.736,2.486c0.008,0.008,0.017,0.016,0.025,0.024
				c0.444-0.087,1.295-0.737,1.956-1.388c-0.604,0.627-1.264,1.35-1.229,1.488c0.913-0.561,1.825-1.122,2.738-1.684v-0.024
				C82.978,14.661,82.777,14.426,82.576,14.192"/>
		</g>
		<g id="g3394" transform="translate(342.8486,62.8335)">
			<path id="path3396" fill="#F1471D" d="M81.461,12.382c-0.078-0.324-0.185-0.599-0.301-0.652c-0.228,0.1-0.454,0.201-0.679,0.301
				c-0.009,0.025-0.018,0.051-0.025,0.076c0.376,0.485,0.753,0.971,1.132,1.455c0.021-0.104,0.014-0.301-0.009-0.523
				c0.161,0.687,0.438,1.346,0.735,1.454c0.008-0.018,0.017-0.034,0.024-0.05v-2.864c-0.074-0.017-0.15-0.032-0.227-0.05
				c-0.216,0.05-0.435,0.102-0.652,0.151C81.429,11.865,81.434,12.113,81.461,12.382"/>
		</g>
		<g id="g3398" transform="translate(339.6338,59.1563)">
			<path id="path3400" fill="#F1471D" d="M80.657,20.656c0.82,0.017,1.642,0.032,2.462,0.05c-0.812,0.034-1.625,0.066-2.436,0.1
				c0.058,0.319,0.116,0.637,0.175,0.955c0.594-0.051,1.188-0.101,1.783-0.15v0.024c-0.596,0.101-1.189,0.202-1.783,0.302
				c0.116,0.26,0.235,0.519,0.352,0.778h0.05c0.888-0.594,1.775-1.188,2.661-1.782c-0.192-0.309-0.308-0.571-0.425-1.005
				c-0.947-0.042-1.894-0.084-2.839-0.125c-0.018,0.267-0.032,0.534-0.05,0.802C80.625,20.622,80.64,20.639,80.657,20.656"/>
		</g>
		<g id="g3402" transform="translate(343.0576,57.0444)">
			<path id="path3404" fill="#F1471D" d="M81.514,25.408c-0.152,0.229-0.311,0.451-0.476,0.678
				c-0.247,0.375-0.493,0.752-0.741,1.127c0.294,0.117,0.585,0.234,0.879,0.352C81.288,27.184,81.715,25.692,81.514,25.408"/>
		</g>
		<g id="g3406" transform="translate(342.0039,55.6416)">
			<path id="path3408" fill="#F1471D" d="M81.25,28.564c0.271-0.318,0.559-0.693,0.843-1.076c0.153-0.235,0.309-0.472,0.464-0.707
				c0.006,0.006,0.006,0.021,0.011,0.029c0.279-0.415,0.535-0.825,0.718-1.184c-0.102-0.051-0.201-0.102-0.303-0.151
				c-0.025,0.159-0.05,0.319-0.075,0.478h-0.024v-0.428h-0.101c-0.787,0.846-1.573,1.691-2.361,2.536
				C80.697,28.229,80.974,28.396,81.25,28.564"/>
		</g>
		<g id="g3410" transform="translate(343.5713,57.7905)">
			<path id="path3412" fill="#F1471D" d="M81.642,23.729c-0.456,0.789-0.746,1.973-0.854,3.14c0.019,0.016,0.035,0.033,0.05,0.049
				c0.295,0.059,0.586,0.118,0.881,0.177C81.691,25.972,81.667,24.851,81.642,23.729"/>
		</g>
		<g id="g3414" transform="translate(343.1289,59.4985)">
			<path id="path3416" fill="#F1471D" d="M81.531,19.886c-0.142,0.2-0.291,0.323-0.2,0.704h0.025h0.024
				c0.125-0.151,0.252-0.302,0.377-0.453C81.724,19.948,81.722,19.926,81.531,19.886"/>
		</g>
		<g id="g3418" transform="translate(343.21,59.7192)">
			<path id="path3420" fill="#F1471D" d="M81.552,19.389c-0.034-0.008-0.067-0.016-0.102-0.024c-0.032,0.067-0.066,0.134-0.1,0.201
				C81.511,19.653,81.539,19.487,81.552,19.389"/>
		</g>
		<g id="g3422" transform="translate(343.3301,59.1362)">
			<path id="path3424" fill="#F1471D" d="M81.582,20.702l-0.352,0.401v0.1c0.009,0.009,0.015,0.018,0.024,0.026
				c0.159-0.034,0.319-0.067,0.478-0.102C81.781,20.916,81.712,20.805,81.582,20.702"/>
		</g>
		<g id="g3426" transform="translate(343.29,58.5942)">
			<path id="path3428" fill="#F1471D" d="M81.571,21.92c-0.026,0.068-0.05,0.135-0.076,0.201c0.061,0.034,0.119,0.066,0.177,0.101
				c0.024-0.024,0.051-0.05,0.076-0.075C81.71,21.973,81.721,21.983,81.571,21.92"/>
		</g>
		<g id="g3430" transform="translate(341.2412,56.1636)">
			<path id="path3432" fill="#F1471D" d="M81.06,27.39c0.837-0.846,1.674-1.691,2.511-2.537c-0.116-0.191-0.321-0.447-0.577-0.502
				c-0.864,0.828-1.725,1.657-2.586,2.486C80.623,27.021,80.842,27.207,81.06,27.39"/>
		</g>
		<g id="g3434" transform="translate(342.4658,58.8555)">
			<path id="path3436" fill="#F1471D" d="M81.365,21.333c0.16,0.041,0.319,0.084,0.478,0.125c-0.035-0.201-0.107-0.352-0.276-0.426
				c-0.083,0.059-0.167,0.117-0.251,0.176C81.333,21.249,81.35,21.29,81.365,21.333"/>
		</g>
		<g id="g3438" transform="translate(342.0039,58.5347)">
			<path id="path3440" fill="#F1471D" d="M81.25,22.054c0.051-0.016,0.102-0.031,0.151-0.049h0.401
				C81.619,22.023,81.435,22.039,81.25,22.054"/>
		</g>
		<g id="g3442" transform="translate(340.6582,56.7466)">
			<path id="path3444" fill="#F1471D" d="M80.913,26.079c0.829-0.778,1.658-1.557,2.485-2.336c-0.062-0.203-0.225-0.292-0.45-0.326
				c-0.137,0.096-0.478,0.527-0.478,0.527c-0.597,0.048-1.982,0.905-2.159,1.382c0.185,0.251,0.367,0.501,0.552,0.753H80.913z"/>
		</g>
		<g id="g3446" transform="translate(339.7949,60.6836)">
			<path id="path3448" fill="#F1471D" d="M80.697,17.22c-0.076,0.301-0.15,0.603-0.226,0.904c0.97,0.042,1.941,0.083,2.912,0.126
				c0.009-0.102,0.017-0.202,0.025-0.303C83.098,17.405,81.447,17.274,80.697,17.22"/>
		</g>
		<g id="g3450" transform="translate(340.1357,61.4063)">
			<path id="path3452" fill="#F1471D" d="M80.783,15.594c-0.118,0.268-0.234,0.535-0.352,0.803c0.009,0.009,0.017,0.017,0.025,0.026
				c0.618,0.091,1.238,0.184,1.858,0.275C81.804,16.33,81.293,15.962,80.783,15.594"/>
		</g>
		<g id="g3454" transform="translate(342.0244,60.4023)">
			<path id="path3456" fill="#F1471D" d="M81.255,17.853c0.092-0.016,0.184-0.033,0.276-0.05c0.052,0.059,0.102,0.117,0.151,0.177
				C81.419,18.053,81.411,18.031,81.255,17.853"/>
		</g>
		<g id="g3458" transform="translate(340.5576,62.0493)">
			<path id="path3460" fill="#F1471D" d="M80.889,14.147c-0.159,0.251-0.319,0.502-0.478,0.752c0.157,0.318,1.823,1.17,2.285,1.332
				c-0.051,0.042-0.101,0.084-0.15,0.126c0.352,0.259,0.704,0.519,1.055,0.777c-0.286-0.075-0.535-0.173-0.854-0.125
				c-0.009,0.009-0.017,0.017-0.025,0.025c0.007,0.34,0.109,0.622,0.276,0.804c0.372-0.01,0.571-0.178,0.779-0.352
				c-0.275-0.272,0.055-0.615-0.102-1.005c-0.157-0.05-0.317-0.101-0.477-0.149c0.024-0.018,0.051-0.034,0.074-0.052
				c0.026-0.042,0.051-0.084,0.077-0.125c0.209,0.149,0.48,0.288,0.828,0.226c0.009-0.018,0.018-0.033,0.024-0.049
				c0.064-0.298-0.045-0.489-0.125-0.704h-0.076c-0.283,0.167-0.568,0.335-0.853,0.503C82.395,15.469,81.644,14.808,80.889,14.147"
				/>
		</g>
		<g id="g3462" transform="translate(342.3457,59.9004)">
			<path id="path3464" fill="#F1471D" d="M81.335,18.981l-0.351-0.149c-0.009,0.066-0.018,0.134-0.025,0.201
				c0.017,0.017,0.034,0.032,0.05,0.05c0.101-0.008,0.2-0.018,0.302-0.025C81.318,19.033,81.327,19.007,81.335,18.981"/>
		</g>
		<g id="g3466" transform="translate(341.1807,62.6123)">
			<path id="path3468" fill="#F1471D" d="M81.044,12.881c-0.21,0.185-0.419,0.368-0.629,0.552c0.705,0.653,1.406,1.306,2.111,1.959
				c0.241-0.143,0.484-0.284,0.729-0.427C83.03,14.58,81.476,12.971,81.044,12.881"/>
		</g>
		<g id="g3470" transform="translate(341.8838,63.0542)">
			<path id="path3472" fill="#F1471D" d="M81.22,11.886c-0.217,0.133-0.435,0.269-0.652,0.402c0.115,0.289,1.998,2.148,2.209,2.186
				C82.75,13.677,81.733,12.116,81.22,11.886"/>
		</g>
		<g id="g3474" transform="translate(343.1494,61.4263)">
			<path id="path3476" fill="#F1471D" d="M81.536,15.549c-0.038,0.232,0.121,0.368,0.3,0.525c-0.064,0.052-0.132,0.102-0.199,0.151
				c0.097,0.271,0.274,0.341,0.126,0.603c0.129,0.01,0.131-0.004,0.201-0.125C82.286,16.324,81.745,15.674,81.536,15.549"/>
		</g>
		<g id="g3478" transform="translate(343.8115,58.5542)">
			<path id="path3480" fill="#F1471D" d="M81.702,22.011c-0.109,0.092-0.218,0.185-0.326,0.275c0.009,0.025,0.018,0.051,0.026,0.076
				c0.065,0.042,0.132,0.084,0.201,0.125c0.032-0.008,0.067-0.016,0.099-0.024c0.051-0.117,0.101-0.235,0.151-0.351
				C81.803,22.079,81.753,22.044,81.702,22.011"/>
		</g>
		<g id="g3482" transform="translate(346.002,58.3735)">
			<path id="path3484" fill="#F1471D" d="M82.25,22.418l0.176-0.251c-0.009-0.008-0.018-0.017-0.025-0.025
				c-0.407,0.092-0.663-0.071-1.104-0.201c-0.018,0.168-0.034,0.335-0.052,0.502c0.395,0.137,0.278,0.402,0.428,0.754
				c0.394,0.034,0.788,0.066,1.181,0.101v-0.05C82.579,23.006,82.371,22.817,82.25,22.418"/>
		</g>
		<g id="g3486" transform="translate(347.6689,59.7192)">
			<path id="path3488" fill="#F1471D" d="M82.666,19.389c-0.803-0.117-1.606-0.233-2.41-0.351c0.158,0.354,1.665,0.722,2.109,0.878
				c0.108-0.167,0.219-0.334,0.327-0.502C82.684,19.407,82.675,19.399,82.666,19.389"/>
		</g>
		<g id="g3490" transform="translate(347.1074,56.2036)">
			<path id="path3492" fill="#F1471D" d="M82.525,27.299c0.227-0.26,0.452-0.519,0.678-0.778c-0.059-0.024-0.117-0.05-0.176-0.075
				c-0.017,0.059-0.033,0.116-0.05,0.176c-0.311-0.209-0.1-0.326-0.275-0.502c-0.521-0.512-1.434-0.486-2.312-0.654
				C81.103,26.077,81.814,26.688,82.525,27.299"/>
		</g>
		<g id="g3494" transform="translate(346.9863,56.1836)">
			<path id="path3496" fill="#F1471D" d="M82.495,27.345c-0.777-0.578-1.462-1.522-2.435-1.859c0.56,0.82,1.12,1.643,1.682,2.462
				C82.002,27.882,82.464,27.559,82.495,27.345"/>
		</g>
		<g id="g3498" transform="translate(346.2832,55.6216)">
			<path id="path3500" fill="#F1471D" d="M82.319,28.61c0.009-0.025,0.018-0.051,0.025-0.076c-0.511-0.686-1.021-1.372-1.531-2.059
				c0.201,0.829,0.401,1.658,0.602,2.486c0.018,0.008,0.035,0.017,0.05,0.025C81.751,28.86,82.035,28.735,82.319,28.61"/>
		</g>
		<g id="g3502" transform="translate(344.7158,55.1396)">
			<path id="path3504" fill="#F1471D" d="M81.928,29.693c0.311-0.057,0.62-0.115,0.931-0.175c-0.031-1.006-0.452-2.743-0.98-3.315
				c-0.025,0.453-0.05,0.904-0.075,1.357c-0.006-0.351,0.039-1.371-0.151-1.507c-0.324,0.041-0.652,0.083-0.979,0.125
				c-0.056,0.405-0.01,3.431,0.125,3.541c0.335-0.017,0.67-0.034,1.005-0.051c0.017-0.585,0.034-1.171,0.05-1.758
				C81.878,28.506,81.903,29.1,81.928,29.693"/>
		</g>
		<g id="g3506" transform="translate(345.5801,61.3662)">
			<path id="path3508" fill="#F1471D" d="M82.145,15.684c-0.334,0.293-0.86,0.506-1.004,0.979c0.007,0.025,0.016,0.051,0.024,0.076
				h0.05C81.451,16.586,82.28,15.834,82.145,15.684"/>
		</g>
		<g id="g3510" transform="translate(344.9775,61.4473)">
			<path id="path3512" fill="#F1471D" d="M81.993,15.501v0.127c0.059-0.009,0.118-0.017,0.177-0.025
				c-0.009-0.033-0.018-0.067-0.026-0.102c-0.032-0.007-0.066-0.016-0.101-0.024C82.025,15.485,82.011,15.494,81.993,15.501"/>
		</g>
		<g id="g3514" transform="translate(343.6924,60.8843)">
			<path id="path3516" fill="#F1471D" d="M81.672,16.768h0.754c-0.187,0.06-0.368,0.118-0.554,0.177
				c0.076,0.125,0.15,0.25,0.227,0.376c0.301-0.139,0.569-0.558,0.428-0.929h-0.127c-0.259,0.066-0.519,0.134-0.777,0.199
				c-0.01,0.018-0.019,0.034-0.026,0.052C81.622,16.685,81.645,16.726,81.672,16.768"/>
		</g>
		<g id="g3518" transform="translate(344.5762,58.4336)">
			<path id="path3520" fill="#F1471D" d="M81.894,22.282c-0.102-0.084-0.202-0.168-0.302-0.251c0.023,0.117,0.05,0.233,0.074,0.351
				c-0.042-0.008-0.083-0.016-0.124-0.024c-0.137-0.101-0.269-0.201-0.404-0.302c-0.007,0.017-0.015,0.034-0.023,0.051
				c0.009,0.024,0.017,0.05,0.023,0.074c0.159,0.135,0.319,0.27,0.478,0.402c0.093-0.042,0.186-0.083,0.278-0.126V22.282z"/>
		</g>
		<g id="g3522" transform="translate(343.9727,58.3335)">
			<path id="path3524" fill="#F1471D" d="M81.742,22.507c-0.05,0.059-0.1,0.117-0.15,0.176c0.134,0.01,0.27,0.018,0.401,0.025
				v-0.074C81.911,22.591,81.826,22.55,81.742,22.507"/>
		</g>
		<g id="g3526" transform="translate(344.7363,61.3267)">
			<path id="path3528" fill="#F1471D" d="M81.933,15.773c-0.1,0.034-0.199,0.067-0.301,0.1v0.353
				c0.043-0.009,0.082-0.018,0.125-0.025C81.878,16.079,81.994,15.932,81.933,15.773"/>
		</g>
		<g id="g3530" transform="translate(345.1377,63.3555)">
			<path id="path3532" fill="#F1471D" d="M82.033,11.208c-0.601-0.192-1.077-0.207-1.882-0.201c0.007,1.013,0.016,2.026,0.025,3.039
				h0.074c0.285-0.084,0.568-0.168,0.854-0.252c0.01-0.854,0.018-1.707,0.025-2.561c0.024,0.837,0.05,1.674,0.075,2.511
				c0.019,0.009,0.033,0.017,0.05,0.025C81.799,13.581,82.112,11.856,82.033,11.208"/>
		</g>
		<g id="g3534" transform="translate(345.2988,63.3154)">
			<path id="path3536" fill="#F1471D" d="M82.073,11.299c-0.142,0.711-0.284,1.424-0.427,2.135h0.101
				c0.368-0.611,0.736-1.223,1.105-1.834c-0.009-0.008-0.018-0.017-0.023-0.025C82.576,11.482,82.325,11.391,82.073,11.299"/>
		</g>
		<g id="g3538" transform="translate(346.002,63.0146)">
			<path id="path3540" fill="#F1471D" d="M82.25,11.975c-0.352,0.586-0.704,1.173-1.056,1.76c0.143-0.002,0.096-0.042,0.102,0.1
				c0.377-0.129,1.596-1.155,1.657-1.481C82.719,12.227,82.484,12.102,82.25,11.975"/>
		</g>
		<g id="g3542" transform="translate(346.1426,61.8687)">
			<path id="path3544" fill="#F1471D" d="M82.285,14.553c-0.169,0.119-0.466,0.278-0.378,0.501
				C82.108,14.95,82.402,14.685,82.285,14.553"/>
		</g>
		<g id="g3546" transform="translate(347.8301,61.3862)">
			<path id="path3548" fill="#F1471D" d="M82.707,15.639c-0.762,0.485-1.524,0.972-2.285,1.456c0.377,0.342,1.752,0.506,2.359,0.326
				c0.127-0.26,0.252-0.519,0.378-0.779c-0.854,0.16-1.708,0.319-2.562,0.479c0.846-0.209,1.691-0.419,2.537-0.628
				C82.991,16.208,82.849,15.923,82.707,15.639"/>
		</g>
		<g id="g3550" transform="translate(348.9346,62.4712)">
			<path id="path3552" fill="#F1471D" d="M82.982,13.198l-1.179-0.679c0.268,0.344,0.535,0.688,0.803,1.03h0.126
				C82.815,13.432,82.9,13.315,82.982,13.198"/>
		</g>
		<g id="g3554" transform="translate(350,59.2773)">
			<path id="path3556" fill="#F1471D" d="M83.249,20.384c-0.067,0.093-0.134,0.184-0.201,0.276l0.553-0.177l-0.025-0.074
				C83.467,20.4,83.357,20.393,83.249,20.384"/>
		</g>
		<g id="g3558" transform="translate(349.6982,59.0962)">
			<path id="path3560" fill="#F1471D" d="M83.174,20.792c0.076-0.093,0.151-0.184,0.226-0.276c-0.007-0.009-0.016-0.017-0.024-0.024
				h-0.328c0.009,0.091,0.018,0.184,0.026,0.275C83.106,20.776,83.141,20.783,83.174,20.792"/>
		</g>
		<g id="g3562" transform="translate(350.4824,59.5186)">
			<path id="path3564" fill="#F1471D" d="M83.369,19.841c-0.083,0.05-0.168,0.101-0.251,0.151c0.123,0.109,0.155,0.07,0.326,0.075
				c0.017-0.067,0.034-0.134,0.05-0.201C83.452,19.857,83.409,19.85,83.369,19.841"/>
		</g>
		<g id="g3566" transform="translate(349.5781,58.5742)">
			<path id="path3568" fill="#F1471D" d="M83.144,21.966c0.379-0.031,0.662-0.139,0.879-0.326v-0.1
				c-0.009-0.01-0.018-0.018-0.025-0.025c-0.276-0.033-0.553-0.067-0.828-0.102c-0.025,0.168-0.052,0.336-0.075,0.503
				C83.109,21.933,83.126,21.95,83.144,21.966"/>
		</g>
		<g id="g3570" transform="translate(349.7393,63.7773)">
			<path id="path3572" fill="#F1471D" d="M83.184,10.259c-0.16,0.084-0.318,0.168-0.478,0.252v0.049
				c0.149,0.051,0.301,0.102,0.451,0.152c0.093-0.093,0.186-0.186,0.276-0.277v-0.049C83.352,10.343,83.267,10.302,83.184,10.259"/>
		</g>
		<g id="g3574" transform="translate(350.4219,61.1055)">
			<path id="path3576" fill="#F1471D" d="M83.354,16.27c-0.47,0.566-1.185,1.005-1.055,2.009c0.016,0.009,0.033,0.018,0.05,0.024
				c0.47,0.07,1.001,0.035,1.13-0.4c-0.075-0.159-0.15-0.319-0.227-0.478C83.475,17.314,83.68,16.494,83.354,16.27"/>
		</g>
		<g id="g3578" transform="translate(351.4258,60.4224)">
			<path id="path3580" fill="#F1471D" d="M83.605,17.807c-0.009,0.059-0.017,0.117-0.025,0.177c0.009,0.007,0.017,0.017,0.025,0.024
				c0.043-0.008,0.084-0.018,0.128-0.024v-0.126C83.689,17.841,83.648,17.824,83.605,17.807"/>
		</g>
		<g id="g3582" transform="translate(351.5273,59.3975)">
			<path id="path3584" fill="#F1471D" d="M83.631,20.113c-0.052-0.018-0.102-0.033-0.151-0.051c-0.026,0.025-0.05,0.051-0.076,0.076
				l0.176,0.15C83.597,20.23,83.612,20.171,83.631,20.113"/>
		</g>
		<g id="g3586" transform="translate(351.627,60.1216)">
			<path id="path3588" fill="#F1471D" d="M83.656,18.485c-0.075-0.025-0.151-0.051-0.227-0.076v0.227l0.201-0.025
				C83.64,18.568,83.647,18.527,83.656,18.485"/>
		</g>
		<g id="g3590" transform="translate(351.627,59.7593)">
			<path id="path3592" fill="#F1471D" d="M83.656,19.299c-0.025-0.067-0.051-0.134-0.075-0.201h-0.127
				c-0.016,0.018-0.033,0.034-0.05,0.05v0.177C83.488,19.316,83.572,19.308,83.656,19.299"/>
		</g>
		<g id="g3594" transform="translate(351.6865,57.5894)">
			<path id="path3596" fill="#F1471D" d="M83.671,24.181c-0.182,0.17-0.355,0.211-0.578,0.226c0.011,0.042,0.02,0.084,0.026,0.126
				c0.344,0.014,0.516-0.049,0.703-0.176c-0.009-0.034-0.018-0.066-0.024-0.1C83.754,24.232,83.713,24.206,83.671,24.181"/>
		</g>
		<g id="g3598" transform="translate(351.1846,59.7393)">
			<path id="path3600" fill="#F1471D" d="M83.545,19.345c0.05-0.025,0.101-0.05,0.151-0.075c0.052-0.264,0.146-2.354,0.126-2.486
				c-0.017-0.009-0.034-0.016-0.05-0.025h-0.151c-0.092,0.034-0.185,0.066-0.276,0.101C83.058,17.337,83.409,18.785,83.545,19.345"
				/>
		</g>
		<g id="g3602" transform="translate(352.3096,62.5513)">
			<path id="path3604" fill="#F1471D" d="M83.826,13.018h-0.075c-0.175,0.031-0.351,0.065-0.525,0.1
				c-0.018,0.15-0.035,0.301-0.051,0.452c0.259,0.108,0.52,0.218,0.779,0.326C84.034,13.709,83.973,13.15,83.826,13.018"/>
		</g>
		<g id="g3606" transform="translate(352.0693,57.8306)">
			<path id="path3608" fill="#F1471D" d="M83.767,23.639c0.009-0.051,0.016-0.102,0.024-0.151c-0.016-0.017-0.035-0.034-0.051-0.05
				h-0.125v0.227C83.666,23.655,83.717,23.647,83.767,23.639"/>
		</g>
		<g id="g3610" transform="translate(351.9688,59.4185)">
			<path id="path3612" fill="#F1471D" d="M83.741,20.067c0.1,0.135,0.2,0.268,0.302,0.402c0.074-0.043,0.149-0.084,0.225-0.127
				c-0.008-0.05-0.017-0.1-0.025-0.15C84.076,20.15,83.907,20.109,83.741,20.067"/>
		</g>
		<g id="g3614" transform="translate(352.0088,60.8242)">
			<path id="path3616" fill="#F1471D" d="M83.751,16.903c0.017-0.033,0.034-0.066,0.05-0.1c-0.05-0.018-0.1-0.034-0.15-0.051
				c-0.008,0.008-0.017,0.017-0.025,0.025C83.685,16.916,83.615,16.843,83.751,16.903"/>
		</g>
		<g id="g3618" transform="translate(351.8281,61.5273)">
			<path id="path3620" fill="#F1471D" d="M83.706,15.321c0.075,0.093,0.15,0.184,0.227,0.276h0.1
				c-0.013-0.246-0.085-0.495-0.276-0.577C83.738,15.12,83.723,15.222,83.706,15.321"/>
		</g>
		<g id="g3622" transform="translate(359.8232,67.3735)">
			<path id="path3624" fill="#F1471D" d="M85.705,2.168c-0.05,0.059-0.101,0.118-0.15,0.177c-0.046,0.299,0.251,0.686,0.478,0.803
				h0.023c0.051-0.15,0.101-0.301,0.15-0.452C86.033,2.498,86.028,2.229,85.705,2.168"/>
		</g>
	</g>
</g>
</svg>
